<?xml version="1.0" encoding="utf-8"?>
<!-- Generator: Adobe Illustrator 16.0.0, SVG Export Plug-In . SVG Version: 6.00 Build 0)  -->
<!DOCTYPE svg PUBLIC "-//W3C//DTD SVG 1.1//EN" "http://www.w3.org/Graphics/SVG/1.1/DTD/svg11.dtd">
<svg version="1.1" id="Layer_1" xmlns="http://www.w3.org/2000/svg" xmlns:xlink="http://www.w3.org/1999/xlink" x="0px" y="0px"
	 width="128px" height="128px" viewBox="0 0 128 128" enable-background="new 0 0 128 128" xml:space="preserve">
<g>
	<path fill="#E8F1FF" d="M66.398,65.455c-2.953-4.265-8.181-3.922-8.181-3.922s-0.23-0.017-0.23-0.204
		c0-0.161,0.225-0.192,0.225-0.192s4.228-0.129,6.814-3.913c3.135-4.585,1.945-9.852,1.529-11.758c-0.433-1.974-2-5.722-5.449-8.152
		c-3.932-2.771-9.328-3.057-9.328-3.057H19.445v59.337h30.414c0,0,6.926,0.317,12.072-3.135c5.958-3.998,6.483-8.903,6.897-10.504
		C69.367,77.881,69.927,70.55,66.398,65.455z M32.98,44.787h15.954c0,0,3.042,0.052,4.375,1.698
		c0.861,1.063,1.175,3.028,1.175,5.408c0,2.522-0.826,4.29-1.907,5.252c-1.189,1.058-3.643,0.967-3.643,0.967H32.98V44.787z
		 M50.721,83.065H32.98V67.153h17.741c0,0,5.853,0.313,5.853,8.414C56.574,82.753,50.721,83.065,50.721,83.065z"/>
</g>
<g>
	<path fill="#E8F1FF" d="M114.92,75.175c0.549-15.521-4.625-25.789-21.009-25.789c-14.344,0-22.379,10.764-22.379,23.124
		c0,12.359,7.095,22.38,21.987,22.38c15.578,0,20.754-6.938,20.929-15.705l-10.347-0.013c0,0,0,2.979-2.979,4.86
		c-3.007,1.898-8.359,1.636-11.209,0.628c-2.698-0.955-4.387-3.534-4.662-4.097c-1.233-2.534-1.06-5.467-1.06-5.467L114.92,75.175z
		 M83.957,67.258c0,0,1.804-9.328,10.348-9.328c9.328,0,9.328,9.328,9.328,9.328H83.957z"/>
</g>
<g>
	<rect x="81.447" y="37.863" fill="#E8F1FF" width="24.458" height="7.29"/>
</g>
<g>
	<path fill="#E8F1FF" d="M33.222,11.783c-0.694,0-1.366-0.37-1.72-1.023c-0.515-0.949-0.163-2.136,0.786-2.651
		C42.968,2.318,55.046-0.28,67.22,0.597c1.077,0.078,1.887,1.014,1.809,2.091c-0.077,1.077-1.003,1.888-2.09,1.81
		c-11.428-0.823-22.764,1.614-32.785,7.049C33.856,11.707,33.538,11.783,33.222,11.783z"/>
</g>
<g>
	<path fill="#E8F1FF" d="M63.762,127.431C28.604,127.431,0,98.827,0,63.668c0-18.313,7.889-35.762,21.645-47.873
		c0.811-0.713,2.046-0.635,2.759,0.175c0.714,0.811,0.636,2.046-0.175,2.76C11.316,30.099,3.91,46.478,3.91,63.668
		c0,33.003,26.85,59.852,59.852,59.852s59.851-26.849,59.851-59.852c0-25.958-16.562-48.821-41.211-56.892
		c-1.024-0.336-1.584-1.44-1.248-2.467s1.441-1.585,2.466-1.25c12.669,4.149,23.564,12.042,31.511,22.828
		c8.109,11.006,12.394,24.07,12.394,37.781C127.524,98.827,98.922,127.431,63.762,127.431z"/>
</g>
<g>
	<circle fill="#E8F1FF" cx="28.063" cy="13.552" r="2.901"/>
</g>
</svg>
