<?xml version="1.0" encoding="utf-8"?>
<!-- Generator: Adobe Illustrator 16.0.0, SVG Export Plug-In . SVG Version: 6.00 Build 0)  -->
<!DOCTYPE svg PUBLIC "-//W3C//DTD SVG 1.1//EN" "http://www.w3.org/Graphics/SVG/1.1/DTD/svg11.dtd">
<svg version="1.1" id="Layer_1" xmlns="http://www.w3.org/2000/svg" xmlns:xlink="http://www.w3.org/1999/xlink" x="0px" y="0px"
	 width="128px" height="128px" viewBox="0 0 128 128" enable-background="new 0 0 128 128" xml:space="preserve">
<g>
	<path fill="#E8F1FF" d="M84.562,5.064c-1.021-0.353-2.132,0.189-2.485,1.21s0.189,2.133,1.211,2.486
		c24.107,8.321,40.304,31.06,40.304,56.58c0,25.522-15.817,47.839-39.632,56.344l-0.069-11.101l-0.22-9.665
		c0-0.107-0.012-0.216-0.034-0.322c-0.247-1.301-0.921-4.471-1.847-5.765c-0.35-0.489-0.668-0.931-0.956-1.329
		c3.514-0.526,9.148-1.707,14.248-4.259c6.991-3.494,10.431-9.578,12.411-13.85c1.682-3.63,4.12-14.076,2.426-22.911
		c-1.141-5.964-4.707-10.941-6.312-12.94c0.559-1.691,1.375-5.032,0.964-9.259c-0.321-3.308-1.037-6.024-1.582-7.721
		c-0.509-1.586-1.957-2.558-3.608-2.42c-2.274,0.191-5.456,0.598-7.69,1.45c-4.182,1.593-8.328,4.296-10.017,5.455
		c-2.497-0.656-9.641-2.351-16.837-2.351c-7.801,0-14.679,1.67-17.126,2.342c-1.696-1.164-5.834-3.856-10.004-5.446
		c-2.179-0.831-5.27-1.237-7.48-1.432c-1.764-0.153-3.275,0.743-3.764,2.234c-0.462,1.411-1.29,4.313-1.637,7.889
		c-0.411,4.227,0.406,7.568,0.964,9.259c-1.604,1.999-5.172,6.976-6.314,12.94c-1.692,8.838,0.746,19.283,2.427,22.911
		c1.98,4.271,5.421,10.354,12.412,13.85c5.101,2.552,10.735,3.732,14.247,4.259c-0.288,0.398-0.606,0.84-0.954,1.327
		c-0.759,1.063-1.351,3.388-1.676,4.909c-1.155,0.597-4.025,1.7-8.612,1.028c-3.889-0.572-5.875-3.449-7.979-6.497
		c-1.698-2.461-3.453-5.005-6.271-6.276c-4.421-1.993-7.662-2.262-9.634-0.798c-0.974,0.724-1.496,1.809-1.361,2.834
		c0.307,2.349,2.431,3.738,4.484,5.082c1.682,1.101,3.42,2.238,4.167,3.772c0.483,0.995,0.783,1.837,1.073,2.652
		c1.09,3.064,2.035,5.142,7.472,9.05c4.54,3.262,12.354,2.806,16.245,2.319l0.036,9.511c-24.644-7.952-41.64-31.059-41.64-57.076
		c0-16.818,7.141-32.957,19.589-44.28c0.799-0.727,0.857-1.963,0.131-2.761c-0.727-0.799-1.963-0.857-2.762-0.131
		C7.606,30.23,0,47.423,0,65.34c0,28.614,19.296,53.924,46.931,61.571c0.004,0.002,0.008,0.003,0.011,0.003
		c0.018,0.005,0.035,0.01,0.053,0.015c0.01,0.004,0.02,0.005,0.031,0.007c0.063,0.016,0.126,0.029,0.191,0.039
		c0.021,0.004,0.042,0.007,0.063,0.01c0.069,0.009,0.14,0.014,0.21,0.015c0.009,0,0.017,0.001,0.026,0.001c0.001,0,0.003,0,0.005,0
		c0,0,0,0,0,0c0.094,0,0.186-0.011,0.276-0.023c0.021-0.003,0.042-0.007,0.063-0.01c0.091-0.016,0.181-0.039,0.267-0.067
		c0.01-0.003,0.021-0.007,0.031-0.012c0.086-0.028,0.169-0.064,0.25-0.106c0.007-0.003,0.015-0.006,0.023-0.012
		c0.082-0.043,0.16-0.093,0.234-0.147c0.015-0.011,0.03-0.022,0.044-0.034c0.071-0.055,0.14-0.114,0.203-0.179
		c0.011-0.011,0.021-0.024,0.031-0.035c0.058-0.062,0.11-0.126,0.16-0.196c0.008-0.011,0.017-0.022,0.026-0.033
		c0.053-0.077,0.099-0.16,0.14-0.246c0.007-0.014,0.014-0.029,0.022-0.046c0.04-0.088,0.074-0.181,0.101-0.275
		c0.001-0.005,0.004-0.009,0.005-0.013c0.005-0.017,0.007-0.033,0.011-0.05c0.009-0.039,0.019-0.079,0.026-0.119
		c0.005-0.03,0.009-0.062,0.013-0.092c0.005-0.031,0.009-0.063,0.012-0.096c0.003-0.04,0.004-0.079,0.005-0.119
		c0-0.018,0.002-0.033,0.002-0.051l-0.054-14.417c-0.002-0.584-0.265-1.137-0.717-1.506c-0.451-0.369-1.045-0.519-1.617-0.405
		c-2.994,0.591-11.621,1.511-15.53-1.299c-4.721-3.394-5.229-4.82-6.07-7.187c-0.311-0.872-0.663-1.861-1.241-3.05
		c-1.219-2.505-3.616-4.073-5.542-5.336c-0.767-0.499-1.725-1.127-2.285-1.656c0.826-0.042,2.425,0.192,5.047,1.374
		c1.827,0.824,3.204,2.82,4.662,4.934c2.253,3.264,5.056,7.326,10.628,8.145c7.74,1.133,11.938-1.984,12.113-2.119
		c0.383-0.291,0.645-0.714,0.735-1.188c0.344-1.809,0.902-3.786,1.19-4.225c1.876-2.625,2.888-3.96,2.898-3.973
		c0.436-0.573,0.52-1.34,0.221-1.994c-0.299-0.655-0.935-1.093-1.652-1.14c-0.088-0.005-8.923-0.614-16.193-4.249
		c-6.576-3.288-9.508-9.616-10.612-11.998c-1.263-2.726-3.672-12.505-2.134-20.53c1.247-6.508,6.103-11.923,6.149-11.976
		c0.53-0.582,0.66-1.425,0.328-2.139c-0.015-0.034-1.554-3.517-1.076-8.443c0.277-2.854,0.893-5.22,1.315-6.592
		c2.669,0.243,4.953,0.67,6.281,1.177c4.814,1.835,9.836,5.473,9.887,5.509c0.499,0.363,1.142,0.47,1.73,0.287
		c0.079-0.024,7.968-2.437,16.905-2.437c8.16,0,16.576,2.422,16.66,2.447c0.582,0.169,1.209,0.06,1.699-0.297
		c0.05-0.037,5.071-3.674,9.885-5.509c1.334-0.508,3.612-0.934,6.283-1.177c0.407,1.326,1.038,3.715,1.317,6.592
		c0.477,4.94-1.067,8.417-1.078,8.443c-0.331,0.714-0.203,1.558,0.327,2.139c0.048,0.054,4.897,5.433,6.15,11.976
		c1.536,8.024-0.871,17.805-2.135,20.53c-1.104,2.382-4.037,8.71-10.612,11.998c-7.27,3.635-16.104,4.244-16.192,4.249
		c-0.718,0.046-1.354,0.483-1.653,1.139c-0.3,0.655-0.216,1.423,0.222,1.995c0.01,0.014,1.021,1.348,2.895,3.967
		c0.281,0.429,0.815,2.308,1.165,4.074l0.211,9.469l0.088,13.738c0,0.007,0,0.013,0,0.018v0.007c0,0.011,0.002,0.021,0.002,0.033
		c0.002,0.052,0.004,0.104,0.008,0.157c0.004,0.032,0.012,0.063,0.017,0.095c0.004,0.032,0.008,0.062,0.014,0.093
		c0.012,0.057,0.025,0.11,0.042,0.165c0.002,0.007,0.004,0.015,0.006,0.021v0.001c0.03,0.095,0.067,0.185,0.109,0.272
		c0.008,0.015,0.015,0.031,0.024,0.046c0.042,0.08,0.088,0.157,0.138,0.23c0.012,0.017,0.025,0.032,0.038,0.049
		c0.05,0.066,0.105,0.131,0.161,0.19c0.006,0.007,0.012,0.013,0.018,0.019c0.064,0.064,0.134,0.122,0.206,0.176
		c0.016,0.01,0.027,0.022,0.044,0.033c0.071,0.052,0.149,0.099,0.229,0.142c0.01,0.005,0.021,0.009,0.031,0.014
		c0.078,0.039,0.16,0.073,0.244,0.102c0.008,0.002,0.016,0.008,0.023,0.01c0.086,0.026,0.174,0.048,0.264,0.063
		c0.021,0.004,0.042,0.007,0.063,0.009c0.084,0.012,0.17,0.021,0.258,0.021c0.004,0,0.01,0.001,0.014,0.001c0.006,0,0.008,0,0.008,0
		c0.004,0,0.006,0,0.008,0c0.084-0.001,0.166-0.009,0.247-0.021c0.019-0.002,0.04-0.006,0.061-0.009
		c0.088-0.014,0.169-0.033,0.251-0.057c0.002-0.001,0.004-0.001,0.006-0.001c0-0.001,0.002-0.001,0.004-0.002
		c0.009-0.002,0.015-0.005,0.022-0.007c12.725-3.939,24.149-12.008,32.175-22.722c8.309-11.089,12.699-24.294,12.699-38.188
		C127.501,38.152,110.245,13.929,84.562,5.064z"/>
	<path fill="#E8F1FF" d="M33.174,13.336c0.315,0,0.635-0.076,0.933-0.238c10.012-5.448,21.344-7.9,32.769-7.093
		c1.08,0.076,2.014-0.735,2.089-1.812c0.078-1.077-0.734-2.012-1.812-2.087C54.979,1.245,42.907,3.859,32.237,9.665
		c-0.948,0.516-1.298,1.703-0.782,2.651C31.81,12.967,32.481,13.336,33.174,13.336z"/>
	<circle fill="#E8F1FF" cx="27.73" cy="14.798" r="2.9"/>
</g>
</svg>
