<?xml version="1.0" encoding="utf-8"?>
<!-- Generator: Adobe Illustrator 16.0.0, SVG Export Plug-In . SVG Version: 6.00 Build 0)  -->
<!DOCTYPE svg PUBLIC "-//W3C//DTD SVG 1.1//EN" "http://www.w3.org/Graphics/SVG/1.1/DTD/svg11.dtd">
<svg version="1.1" id="Layer_1" xmlns="http://www.w3.org/2000/svg" xmlns:xlink="http://www.w3.org/1999/xlink" x="0px" y="0px"
	 width="128px" height="128px" viewBox="0 0 128 128" enable-background="new 0 0 128 128" xml:space="preserve">
<path fill="#E8F1FF" d="M63.984,51.951c-5.666,0-8.577-3.979-8.771-8.73c-0.012,0-0.025,0-0.038-0.001
	c-0.199,4.863-4.192,8.748-9.104,8.748c-4.977,0-9.017-3.989-9.113-8.943c-0.007,0-0.012,0-0.019,0
	c-0.096,4.955-4.136,8.943-9.113,8.943c-5.038,0-9.123-4.084-9.123-9.123v-4.561c0,0,6.207-9.498,11.456-13.246
	c1.22-0.872,17.384-2.414,33.611-2.417c16.374-0.002,32.815,1.542,34.038,2.417c5.249,3.749,11.455,13.246,11.455,13.246v4.561
	c0,5.039-4.084,9.123-9.122,9.123c-4.979,0-9.018-3.989-9.114-8.943c-0.006,0-0.011,0-0.018,0c-0.097,4.955-4.136,8.943-9.113,8.943
	c-4.913,0-8.906-3.885-9.104-8.748c-0.013,0-0.025,0-0.038,0.001C72.561,47.973,68.74,51.78,63.984,51.951"/>
<path fill="#E8F1FF" d="M102.094,55.252c-0.629,0.137-1.281,0.214-1.952,0.214c-3.963,0-7.865-2.53-9.123-6.061
	c-1.258,3.53-5.16,6.061-9.122,6.061c-3.963,0-7.856-2.53-9.113-6.061c-1.223,3.427-4.984,5.907-8.799,6.044l0,0
	c-4.551,0-7.815-2.571-8.831-6.044c-1.256,3.531-5.118,6.061-9.082,6.061c-3.962,0-7.843-2.53-9.101-6.061
	c-1.258,3.53-5.182,6.061-9.144,6.061c-0.671,0-1.323-0.077-1.953-0.214c-0.233,8.704-0.549,24.819,0.061,32.018
	c0.708,8.35,0.414,13.52,3.391,16.496c1.5,1.5,18.62,2.375,34.658,2.375l0,0c16.039,0,33.159-0.875,34.659-2.375
	c2.976-2.977,2.684-8.146,3.39-16.496C102.643,80.071,102.327,63.957,102.094,55.252z M97.024,93.956
	c-0.201,0.94-0.725,2.231-2.625,2.812c-1.421,0.436-3.063,0.568-5.936,0.376c-2.812-0.188-6.87-2.771-8.311-5.123
	c-1.547-2.524-2.312-6.312-2.312-6.312s-4.164,1.246-13.887,1.25c-0.006,0-0.011,0-0.017,0s-0.011,0-0.017,0
	c-9.723-0.004-13.837-1.25-13.837-1.25s-0.766,3.787-2.313,6.312c-1.439,2.352-5.498,4.936-8.31,5.123
	c-2.874,0.192-4.515,0.06-5.937-0.376c-1.898-0.58-2.422-1.871-2.624-2.812c-0.318-1.485-0.135-2.271,0.325-6.073
	c0.538-4.457,1.893-11.015,5.236-18.481c0.37-0.827,1.5-4.624,4.248-7.311c2.12-2.071,5.062-2.627,5.062-2.627
	s4.124-0.621,6.998,1.065c0.821,0.482,2.875,2.499,2.875,2.499l8.305-0.124v0h0.013h0.014v0l8.305,0.124
	c0,0,2.053-2.017,2.874-2.499c2.874-1.687,6.997-1.065,6.997-1.065s2.943,0.557,5.062,2.627c2.75,2.687,3.88,6.484,4.249,7.311
	c3.344,7.467,4.698,14.024,5.236,18.481C97.158,91.686,97.342,92.471,97.024,93.956z"/>
<polygon fill="#E8F1FF" points="63.962,67.776 54.101,78.055 60.037,78.055 60.037,82.772 68.065,82.772 68.065,78.055 
	73.533,78.055 "/>
<g>
	<path fill="#E8F1FF" d="M33.338,11.392c-0.697,0-1.371-0.372-1.726-1.027c-0.517-0.953-0.164-2.144,0.789-2.66
		c10.717-5.812,22.838-8.418,35.053-7.538c1.081,0.079,1.894,1.017,1.816,2.098c-0.078,1.081-1.008,1.895-2.099,1.816
		C55.703,3.255,44.328,5.7,34.271,11.154C33.974,11.315,33.654,11.392,33.338,11.392z"/>
</g>
<g>
	<path fill="#E8F1FF" d="M63.984,127.44C28.703,127.44,0,98.737,0,63.457c0-18.376,7.917-35.886,21.72-48.039
		c0.813-0.716,2.053-0.637,2.769,0.176s0.637,2.053-0.176,2.769C11.355,29.771,3.924,46.207,3.924,63.457
		c0,33.117,26.943,60.06,60.06,60.06c33.117,0,60.06-26.942,60.06-60.06c0-26.047-16.619-48.991-41.354-57.09
		c-1.03-0.337-1.592-1.445-1.255-2.475c0.339-1.03,1.446-1.591,2.476-1.254c12.713,4.163,23.646,12.083,31.62,22.907
		c8.136,11.045,12.437,24.154,12.437,37.913C127.968,98.737,99.265,127.44,63.984,127.44z"/>
</g>
<g>
	<circle fill="#E8F1FF" cx="28.161" cy="13.166" r="2.911"/>
</g>
</svg>
