<?xml version="1.0" encoding="utf-8"?>
<!-- Generator: Adobe Illustrator 16.0.0, SVG Export Plug-In . SVG Version: 6.00 Build 0)  -->
<!DOCTYPE svg PUBLIC "-//W3C//DTD SVG 1.1//EN" "http://www.w3.org/Graphics/SVG/1.1/DTD/svg11.dtd">
<svg version="1.1" id="Layer_1" xmlns="http://www.w3.org/2000/svg" xmlns:xlink="http://www.w3.org/1999/xlink" x="0px" y="0px"
	 width="128px" height="128px" viewBox="0 0 128 128" enable-background="new 0 0 128 128" xml:space="preserve">
<path fill="#E8F1FF" d="M44.617,34.181c0,4.616-4.009,8.359-9.583,8.359c-5.233,0-9.243-3.675-9.243-8.292
	c0-6.32,4.146-9.174,9.243-9.174C40.063,25.074,44.617,27.52,44.617,34.181z"/>
<rect x="26.743" y="49.268" fill="#E8F1FF" width="16.854" height="50.496"/>
<path fill="#E8F1FF" d="M89.743,48.656c-14.135-3.443-20.116,7.748-20.116,7.748v-7.136H52.772v50.496h16.855V70.381
	c0,0-0.008-0.323,0-0.43c0.233-3.16,1.313-8.835,9.425-8.473c7.779,0.347,8.109,9.47,8.109,9.47v28.815h16.854V70.948
	C104.016,70.948,105.478,52.488,89.743,48.656z"/>
<g>
	<path fill="#E8F1FF" d="M33.275,11.371c-0.695,0-1.369-0.371-1.723-1.025c-0.516-0.95-0.163-2.139,0.788-2.655
		c10.697-5.8,22.794-8.402,34.987-7.523c1.078,0.078,1.89,1.015,1.812,2.094c-0.077,1.079-1.005,1.892-2.094,1.813
		C55.598,3.25,44.245,5.69,34.207,11.133C33.91,11.294,33.59,11.371,33.275,11.371z"/>
</g>
<g>
	<path fill="#E8F1FF" d="M63.863,127.2C28.648,127.2,0,98.552,0,63.337c0-18.342,7.902-35.818,21.679-47.948
		c0.812-0.714,2.049-0.636,2.764,0.176c0.715,0.812,0.636,2.049-0.176,2.764C11.334,29.714,3.917,46.12,3.917,63.337
		c0,33.054,26.892,59.946,59.946,59.946c33.055,0,59.946-26.893,59.946-59.946c0-25.999-16.588-48.897-41.274-56.981
		c-1.029-0.336-1.589-1.443-1.253-2.471c0.337-1.028,1.443-1.588,2.472-1.252c12.688,4.155,23.602,12.062,31.56,22.864
		c8.12,11.023,12.413,24.108,12.413,37.84C127.726,98.552,99.076,127.2,63.863,127.2z"/>
</g>
<g>
	<circle fill="#E8F1FF" cx="28.108" cy="13.142" r="2.906"/>
</g>
</svg>
